<?xml version="1.0" encoding="utf-8"?>
<svg viewBox="0 0 500 500" xmlns="http://www.w3.org/2000/svg">
  <path style="fill: rgb(216, 216, 216); stroke-width: 1.534px; stroke: rgb(51, 51, 51);" d="M 151.716 113.674 C 167.142 146.603 142.251 187.171 137.71 190.393 C 162.584 189.647 289.931 189.78 283.927 279.689 C 277.13 381.461 88.7 345.841 88.7 345.841 L 29.39 434.891 L 30.008 67.24 C 23.989 56.793 116.711 38.956 151.716 113.674 Z"/>
  <path d="M 318.687 294.089 L 318.687 220.364 L 341.637 220.364 L 341.637 294.089 L 318.687 294.089 Z M 330.162 213.389 C 325.862 213.389 322.737 212.401 320.787 210.426 C 318.837 208.451 317.862 205.789 317.862 202.439 L 317.862 201.914 C 317.862 198.564 318.837 195.914 320.787 193.964 C 322.737 192.014 325.862 191.039 330.162 191.039 C 334.362 191.039 337.45 192.014 339.425 193.964 C 341.4 195.914 342.387 198.564 342.387 201.914 L 342.387 202.439 C 342.387 205.839 341.4 208.514 339.425 210.464 C 337.45 212.414 334.362 213.389 330.162 213.389 Z M 400.032 294.089 L 400.032 250.739 C 400.032 248.039 399.682 245.701 398.982 243.726 C 398.282 241.751 397.107 240.239 395.457 239.189 C 393.807 238.139 391.557 237.614 388.707 237.614 C 386.357 237.614 384.282 238.026 382.482 238.851 C 380.682 239.676 379.169 240.801 377.944 242.226 C 376.719 243.651 376.148 245.264 375.548 247.064 L 375.582 233.612 C 376.382 230.262 377.694 229.989 379.519 227.339 C 381.344 224.689 383.857 222.576 387.057 221.001 C 390.257 219.426 394.307 218.639 399.207 218.639 C 404.707 218.639 409.207 219.701 412.707 221.826 C 416.207 223.951 418.794 227.114 420.469 231.314 C 422.144 235.514 422.982 240.764 422.982 247.064 L 422.982 294.089 L 400.032 294.089 Z M 352.632 294.089 L 352.632 220.364 L 375.432 220.364 L 375.582 294.089 L 352.632 294.089 Z" transform="matrix(1.635958, 0, 0, 1.432398, -223.894363, -77.854134)" style="fill: rgb(216, 216, 216); stroke: rgb(0, 0, 0); white-space: pre;"/>
  <path d="M 188.132 116.411 L 188.132 155.727 L 217.897 155.727 L 217.897 145.18 L 229.44 145.18 L 229.44 155.727 Q 229.44 158.129 228.532 160.239 Q 227.624 162.348 226.071 163.901 Q 224.518 165.454 222.409 166.362 Q 220.3 167.27 217.897 167.27 L 188.132 167.27 Q 185.788 167.27 183.679 166.362 Q 181.569 165.454 180.017 163.901 Q 178.464 162.348 177.556 160.239 Q 176.647 158.129 176.647 155.727 L 176.647 116.411 Q 176.647 114.008 177.556 111.899 Q 178.464 109.79 180.017 108.237 Q 181.569 106.684 183.679 105.776 Q 185.788 104.868 188.132 104.868 L 217.897 104.868 Q 220.3 104.868 222.409 105.776 Q 224.518 106.684 226.071 108.237 Q 227.624 109.79 228.532 111.899 Q 229.44 114.008 229.44 116.411 L 229.44 126.958 L 217.897 126.958 L 217.897 116.411 Z M 305.448 167.27 L 293.905 167.27 L 293.905 116.411 L 261.737 116.411 L 261.737 167.27 L 250.253 167.27 L 250.253 80.844 L 261.737 80.844 L 261.737 115.883 Q 261.854 113.598 262.792 111.577 Q 263.729 109.555 265.282 108.061 Q 266.835 106.567 268.885 105.717 Q 270.936 104.868 273.28 104.868 L 293.905 104.868 Q 296.307 104.868 298.417 105.776 Q 300.526 106.684 302.079 108.237 Q 303.632 109.79 304.54 111.899 Q 305.448 114.008 305.448 116.411 Z M 326.264 140.024 Q 326.264 137.622 327.172 135.541 Q 328.08 133.461 329.633 131.879 Q 331.185 130.297 333.295 129.389 Q 335.404 128.481 337.748 128.481 L 367.514 128.481 L 367.514 116.411 L 329.838 116.411 L 329.838 104.868 L 367.514 104.868 Q 369.916 104.868 372.025 105.776 Q 374.135 106.684 375.687 108.237 Q 377.24 109.79 378.148 111.899 Q 379.057 114.008 379.057 116.411 L 379.057 167.27 L 367.514 167.27 L 367.514 156.723 Q 367.338 158.891 366.342 160.825 Q 365.346 162.758 363.793 164.194 Q 362.24 165.629 360.248 166.45 Q 358.256 167.27 356.029 167.27 L 337.748 167.27 Q 335.404 167.27 333.295 166.362 Q 331.185 165.454 329.633 163.901 Q 328.08 162.348 327.172 160.239 Q 326.264 158.129 326.264 155.727 Z M 337.748 155.727 L 367.514 155.727 L 367.514 140.024 L 337.748 140.024 Z M 396.244 104.868 L 411.478 104.868 L 411.478 85.649 L 423.021 85.649 L 423.021 104.868 L 443.529 104.868 L 443.529 116.411 L 423.021 116.411 L 423.021 155.727 L 443.529 155.727 L 443.529 167.27 L 423.021 167.27 Q 420.677 167.27 418.568 166.362 Q 416.459 165.454 414.877 163.901 Q 413.295 162.348 412.386 160.239 Q 411.478 158.129 411.478 155.727 L 411.478 116.411 L 396.244 116.411 Z" transform="matrix(1.10711, 0, 0, 1.139845, -18.385599, -24.566801)" style="fill: rgb(51, 51, 51); white-space: pre; stroke: rgb(51, 51, 51); stroke-width: 3.56037px;"/>
  <ellipse style="stroke: rgb(0, 0, 0); fill: rgb(73, 146, 255);" cx="89.386" cy="268.24" rx="22.858" ry="23.534"/>
  <ellipse style="stroke: rgb(0, 0, 0); fill: rgb(73, 146, 255);" cx="154.874" cy="269.512" rx="22.858" ry="23.534"/>
  <ellipse style="stroke: rgb(0, 0, 0); fill: rgb(73, 146, 255);" cx="220.98" cy="270.148" rx="22.858" ry="23.534"/>
</svg>